<svg width="16" height="8" viewBox="0 0 18 10" fill="none" xmlns="http://www.w3.org/2000/svg">
<path d="M9 10C8.78475 10 8.5765 9.96183 8.37525 9.8855C8.17291 9.80916 8.00448 9.70738 7.86995 9.58015L0.443946 2.55725C0.147981 2.27735 0 1.92112 0 1.48855C0 1.05598 0.147981 0.699745 0.443946 0.419847C0.73991 0.139949 1.11659 0 1.57399 0C2.03139 0 2.40807 0.139949 2.70404 0.419847L9 6.37405L15.296 0.419847C15.5919 0.139949 15.9686 0 16.426 0C16.8834 0 17.2601 0.139949 17.5561 0.419847C17.852 0.699745 18 1.05598 18 1.48855C18 1.92112 17.852 2.27735 17.5561 2.55725L10.13 9.58015C9.96861 9.73282 9.79372 9.84071 9.60538 9.90382C9.41704 9.96794 9.21525 10 9 10Z" fill="#3B3A37"/>
</svg>
